<svg xmlns="http://www.w3.org/2000/svg" width="70" height="60" viewBox="0 0 70 60">
  <g id="组_37" data-name="组 37" transform="translate(-699 -1933)">
    <rect id="矩形_30" data-name="矩形 30" width="70" height="60" transform="translate(699 1933)" fill="#fff" opacity="0"/>
    <g id="钱包_1_" data-name="钱包 (1)" transform="translate(634.148 1899.074)">
      <path id="路径_81" data-name="路径 81" d="M342.312,468.588a1.05,1.05,0,1,0,0-2.1H336.35l3.862-4.943a1.05,1.05,0,1,0-1.648-1.3l-4.922,6.3h-2.1l-4.408-6.2a1.05,1.05,0,0,0-1.711,1.217l3.548,4.985H323.42a1.05,1.05,0,0,0,0,2.1h8.4v4.545h-8.4a1.05,1.05,0,0,0,0,2.1h8.4v5.594a1.05,1.05,0,1,0,2.1,0v-5.636h8.4a1.05,1.05,0,1,0,0-2.1h-8.4v-4.555Z" transform="translate(-232.874 -398.567)" fill="#85a5ff" stroke="#85a5ff" stroke-width="0.5"/>
      <path id="路径_82" data-name="路径 82" d="M110.183,53.774c2.1-1.175,6.045-3.757,6.822-7.158a5.815,5.815,0,0,0-1.469-5.248,5.584,5.584,0,0,0-4.1-2.1,9.6,9.6,0,0,0-5.857,2.236c-.934-1.4-2.8-3.579-5.531-3.579A8.334,8.334,0,0,0,93.338,41.8c-1.459-.588-4.45-1.553-6.99-.724A5.069,5.069,0,0,0,83.367,43.7c-2.162,4.282,3.894,8.848,6.045,10.3-7.378,4.2-13.56,12.269-13.56,21.107,0,14.127,10.894,15.3,23.09,15.3,8.816,0,25.189,0,25.189-15.3C124.132,66.054,117.729,57.867,110.183,53.774ZM91.154,52.62c-1.963-1.217-7.273-5.248-5.909-7.987,1.847-3.652,7.977-.609,8.04-.577a1.05,1.05,0,0,0,1.406-.462s1.868-3.568,5.353-3.568c2.6,0,4.282,3.516,4.293,3.548a1.05,1.05,0,0,0,1.69.3s2.592-2.508,5.132-2.508h.178a3.516,3.516,0,0,1,2.592,1.385,3.778,3.778,0,0,1,1.05,3.38c-.682,2.981-5.248,5.636-7.011,6.413a.986.986,0,0,0-.115.084,21.736,21.736,0,0,0-5.573-1.574l1.847-4.618a1.051,1.051,0,0,0-1.952-.777l-2.1,5.248h-1.2L97.83,47.76a1.05,1.05,0,1,0-1.994.661l.913,2.729A22.724,22.724,0,0,0,91.5,52.861a1.05,1.05,0,0,0-.346-.241ZM98.942,88.3C85,88.3,77.951,86.258,77.951,75.1c0-11.692,12.322-22.041,22.041-22.041s22.041,10.4,22.041,22.041C122.032,86.1,113.174,88.3,98.942,88.3Z" transform="translate(0 0)" fill="#2a47ab" stroke="#2a47ab" stroke-width="0.5"/>
    </g>
  </g>
</svg>
