<svg xmlns="http://www.w3.org/2000/svg" width="13.244" height="15.838" viewBox="0 0 13.244 15.838">
  <g id="订单" transform="translate(-157.951 -78.15)">
    <path id="联合_21" data-name="联合 21" d="M5075.985-1687.162a1.938,1.938,0,0,1-1.939-1.932v-11.675a1.938,1.938,0,0,1,1.939-1.932h7.36a.89.89,0,0,1,.594.225l.036.031,2.548,3.449a1.5,1.5,0,0,1,.467,1.087v8.815a1.941,1.941,0,0,1-1.942,1.932Zm-1.041-13.607v11.675a1.037,1.037,0,0,0,1.041,1.033h9.063a1.039,1.039,0,0,0,1.041-1.033v-8.621h-1.994a1.178,1.178,0,0,1-1.176-1.176v-2.91h-6.934A1.038,1.038,0,0,0,5074.944-1700.769Zm8.826,1.878a.323.323,0,0,0,.323.322h1.625l-1.948-2.637Zm-7.338,6.769a.45.45,0,0,1-.451-.449.449.449,0,0,1,.451-.449h6.082a.449.449,0,0,1,.449.449.451.451,0,0,1-.452.449Zm0-2.331a.449.449,0,0,1-.451-.449.45.45,0,0,1,.451-.449h6.082a.45.45,0,0,1,.449.449.451.451,0,0,1-.452.449Zm0-2.272a.45.45,0,0,1-.451-.449.451.451,0,0,1,.451-.451h6.082a.45.45,0,0,1,.449.451.451.451,0,0,1-.452.449Z" transform="translate(-4915.945 1781)" fill="#989fae" stroke="#989fae" stroke-width="0.3"/>
  </g>
</svg>
