<svg xmlns="http://www.w3.org/2000/svg" width="70" height="60" viewBox="0 0 70 60">
  <g id="组_39" data-name="组 39" transform="translate(-1161 -1933)">
    <rect id="矩形_32" data-name="矩形 32" width="70" height="60" transform="translate(1161 1933)" fill="#fff" opacity="0"/>
    <g id="电脑" transform="translate(1088.6 1827.5)">
      <path id="路径_85" data-name="路径 85" d="M143.037,160.976H97.774A1.769,1.769,0,0,1,96,159.2V127.874a1.769,1.769,0,0,1,1.774-1.774h45.263a1.769,1.769,0,0,1,1.774,1.774V159.2A1.773,1.773,0,0,1,143.037,160.976Z" transform="translate(-12.804 -12.804)" fill="#fff"/>
      <path id="路径_86" data-name="路径 86" d="M130.233,148.963H84.97a2.577,2.577,0,0,1-2.57-2.57V115.07a2.577,2.577,0,0,1,2.57-2.57h45.263a2.577,2.577,0,0,1,2.57,2.57V146.4A2.569,2.569,0,0,1,130.233,148.963ZM84.97,114.087a.986.986,0,0,0-.984.984V146.4a.986.986,0,0,0,.984.984h45.263a.986.986,0,0,0,.984-.984V115.07a.986.986,0,0,0-.984-.984Z" transform="translate(0 0)" fill="#2a47ab" stroke="#2a47ab" stroke-width="1"/>
      <path id="路径_88" data-name="路径 88" d="M398.188,731.245H385.513a1.336,1.336,0,0,1-1.311-1.616l1.5-6.915a.912.912,0,0,1,.878-.714h10.6a.9.9,0,0,1,.878.708l1.417,6.914A1.316,1.316,0,0,1,398.188,731.245Z" transform="translate(-284.103 -573.816)" fill="#fff"/>
      <path id="路径_89" data-name="路径 89" d="M130.373,612H117.7a2.125,2.125,0,0,1-2.078-2.582l1.5-6.914a1.7,1.7,0,0,1,1.657-1.341h10.6a1.713,1.713,0,0,1,1.657,1.335v.006l1.417,6.909a2.13,2.13,0,0,1-.422,1.785A2.083,2.083,0,0,1,130.373,612Zm-11.6-9.256a.132.132,0,0,0-.111.088l-1.5,6.92a.547.547,0,0,0,.111.463.526.526,0,0,0,.422.205h12.675a.553.553,0,0,0,.539-.668v-.006l-1.417-6.908a.112.112,0,0,0-.105-.082H118.769ZM99.7,594.5h48.635v1.586H99.7Z" transform="translate(-16.287 -453.781)" fill="#2a47ab" stroke="#2a47ab" stroke-width="1"/>
    </g>
    <g id="组_57" data-name="组 57" transform="translate(-59.578 -31.862)">
      <rect id="矩形_47" data-name="矩形 47" width="2.459" height="11.477" rx="1.23" transform="translate(1257.52 1977.227) rotate(31)" fill="#85a5ff"/>
      <rect id="矩形_49" data-name="矩形 49" width="2.459" height="11.477" rx="1.23" transform="translate(1262.438 1985.574) rotate(31)" fill="#85a5ff"/>
      <rect id="矩形_48" data-name="矩形 48" width="2.459" height="11.477" rx="1.23" transform="translate(1263.816 1985.574) rotate(90)" fill="#85a5ff"/>
    </g>
  </g>
</svg>
