<svg xmlns="http://www.w3.org/2000/svg" width="70" height="60" viewBox="0 0 70 60">
  <g id="组_38" data-name="组 38" transform="translate(-863 -1933)">
    <g id="组_40" data-name="组 40" transform="translate(-12)">
      <rect id="矩形_31" data-name="矩形 31" width="70" height="60" transform="translate(875 1933)" fill="#fff" opacity="0"/>
      <g id="安全_盾_验证码_1_" data-name="安全、盾、验证码 (1)" transform="translate(789 1902.939)">
        <path id="路径_83" data-name="路径 83" d="M102.191,64.459a15.059,15.059,0,0,0,9.062,13.813l8.713,3.783a2.127,2.127,0,0,0,1.794-.046l8.766-4.356a16.594,16.594,0,0,0,9.211-14.861V43.608q-4.192-.363-8.237-.935a25.846,25.846,0,0,1-10.507-4.2,25.285,25.285,0,0,1-10.564,4.2q-4.189.592-8.237.941Zm-1.716-23.908q4.653-.352,9.507-1.038a22.429,22.429,0,0,0,9.78-4.067,2.127,2.127,0,0,1,2.423-.016,23.171,23.171,0,0,0,9.76,4.083q4.653.657,9.51,1.034a1.6,1.6,0,0,1,1.472,1.591V62.793a19.785,19.785,0,0,1-10.982,17.719l-8.766,4.356a5.318,5.318,0,0,1-4.484.116L109.982,81.2A18.25,18.25,0,0,1,99,64.459V42.143A1.6,1.6,0,0,1,100.475,40.552Z" transform="translate(0 0)" fill="#2a47ab"/>
        <path id="路径_84" data-name="路径 84" d="M293.317,359.162l12.65-12.619a1.86,1.86,0,0,1,2.631,2.63l-13.972,13.938a1.863,1.863,0,0,1-2.638-.007l-6.449-6.5a1.86,1.86,0,1,1,2.645-2.615l5.133,5.177Z" transform="translate(-176.109 -294.404)" fill="#85a5ff"/>
      </g>
    </g>
  </g>
</svg>
