<svg xmlns="http://www.w3.org/2000/svg" width="44" height="44">
    <defs>
        <linearGradient id="prefix__a" x1=".5" x2=".5" y2="1" gradientUnits="objectBoundingBox">
            <stop offset="0" stop-color="#266ef1" />
            <stop offset="1" stop-color="#2a47ab" />
        </linearGradient>
    </defs>
    <g transform="translate(0 .098)">
        <circle cx="22" cy="22" r="22" transform="translate(0 -.098)" fill="url(#prefix__a)" />
        <path
            d="M32.087 8.567a1.343 1.343 0 01-.35.613 2.168 2.168 0 00-.438.788 14.667 14.667 0 00-2.014.2 14.584 14.584 0 01-1.97.2 6.38 6.38 0 01-.722-.066 6.429 6.429 0 00-.766-.066q-.788.088-2.277.394a7.14 7.14 0 00-2.978 2.89 9.034 9.034 0 00-1.709 3.94 4.733 4.733 0 011.314-.219 20.684 20.684 0 017.794 1.445l.394-.044a3.49 3.49 0 00.788 1.007 2.763 2.763 0 01.788 1.182 1.924 1.924 0 01-1.138 1.27 8.541 8.541 0 00-1.533.876q-6.262-.482-6.043-.482-.657 0-3.459 1.97a33.217 33.217 0 00-1.753 5.65 33.466 33.466 0 00-.394 5.78 1.166 1.166 0 00.131.525l-.131.088-.131.394a4.321 4.321 0 00-1.27.613 4.085 4.085 0 01-.131-1.2 4.085 4.085 0 00-.131-1.2q.088-.876.044-5.079A21.416 21.416 0 0114.484 25l-.394-.35q0-.263-.044-.788v-.744a4.211 4.211 0 01.614-2.151q1.095-1.927 1.095-1.97a32.178 32.178 0 001.4-4.43h-.175q-1.007-.088-1.357 1.4a2.91 2.91 0 00-1.379.876 2.516 2.516 0 01-1.554.832q-.613 0-1.138-.963a3.613 3.613 0 01-.527-1.66 4.234 4.234 0 01.525-1.839l-.044-.263a3.9 3.9 0 01-.219-.394l.35-.307-.13-3.282a1.373 1.373 0 011.576-.7 2 2 0 01.591-.81 2.769 2.769 0 00.547-.591 12.013 12.013 0 011.226-.175l.219.219a.826.826 0 00.263.044q-.044 0 2.452-.35a53.322 53.322 0 016.568-.657q6.525-.003 7.138 2.62z"
            fill="#fff" />
    </g>
</svg>